<svg version="1.1" xmlns="http://www.w3.org/2000/svg" xmlns:xlink="http://www.w3.org/1999/xlink" width="61.46408" height="27.7" viewBox="0,0,61.46408,27.7"><g transform="translate(-286.078,-184.8127)"><g data-paper-data="{&quot;isPaintingLayer&quot;:true}" fill="#ff6347" fill-rule="nonzero" stroke="none" stroke-width="1" stroke-linecap="butt" stroke-linejoin="miter" stroke-miterlimit="10" stroke-dasharray="" stroke-dashoffset="0" style="mix-blend-mode: normal"><g><path d="M299.953,205.5l1.813,-1.813l-2.375,-2.375l-1.813,1.813v0.875h1.5v1.5zM306.828,194.25c-0.141,-0.141 -0.375,-0.125 -0.516,0.016l-5.469,5.469c-0.141,0.141 -0.156,0.375 -0.016,0.516c0.14,0.141 0.375,0.125 0.516,-0.016l5.469,-5.469c0.141,-0.141 0.156,-0.375 0.016,-0.516zM308.078,203.531v2.969c0,2.484 -2.016,4.5 -4.5,4.5h-13c-2.484,0 -4.5,-2.016 -4.5,-4.5v-13c0,-2.484 2.016,-4.5 4.5,-4.5h13c0.625,0 1.25,0.125 1.828,0.391c0.141,0.063 0.25,0.203 0.281,0.359c0.031,0.172 -0.016,0.328 -0.141,0.453l-0.766,0.766c-0.141,0.141 -0.328,0.187 -0.5,0.125c-0.234,-0.063 -0.469,-0.094 -0.703,-0.094h-13c-1.375,0 -2.5,1.125 -2.5,2.5v13c0,1.375 1.125,2.5 2.5,2.5h13c1.375,0 2.5,-1.125 2.5,-2.5v-1.969c0,-0.125 0.047,-0.25 0.141,-0.344l1,-1c0.156,-0.156 0.359,-0.187 0.547,-0.109c0.188,0.078 0.313,0.25 0.313,0.453zM306.578,192l4.5,4.5l-10.5,10.5h-4.5v-4.5zM313.516,194.063l-1.437,1.437l-4.5,-4.5l1.437,-1.437c0.578,-0.578 1.547,-0.578 2.125,0l2.375,2.375c0.578,0.578 0.578,1.547 0,2.125z"/><text transform="translate(315.12958,206.2627) scale(0.5,0.5)" font-size="40" xml:space="preserve" fill="#ff6347" fill-rule="nonzero" stroke="none" stroke-width="1" stroke-linecap="butt" stroke-linejoin="miter" stroke-miterlimit="10" stroke-dasharray="" stroke-dashoffset="0" font-family="Sans Serif" font-weight="normal" text-anchor="start" style="mix-blend-mode: normal"><tspan x="0" dy="0">AB:</tspan></text></g></g></g></svg>