<svg aria-hidden="true" style="position: absolute; width: 0; height: 0; overflow: hidden;" version="1.1" xmlns="http://www.w3.org/2000/svg" xmlns:xlink="http://www.w3.org/1999/xlink">
<defs>
<symbol id="icon-chain" viewBox="0 0 26 28">
<path d="M22.752 20c0-0.406-0.156-0.781-0.438-1.062l-3.25-3.25c-0.281-0.281-0.672-0.438-1.062-0.438-0.453 0-0.812 0.172-1.125 0.5 0.516 0.516 1.125 0.953 1.125 1.75 0 0.828-0.672 1.5-1.5 1.5-0.797 0-1.234-0.609-1.75-1.125-0.328 0.313-0.516 0.672-0.516 1.141 0 0.391 0.156 0.781 0.438 1.062l3.219 3.234c0.281 0.281 0.672 0.422 1.062 0.422s0.781-0.141 1.062-0.406l2.297-2.281c0.281-0.281 0.438-0.656 0.438-1.047zM11.768 8.984c0-0.391-0.156-0.781-0.438-1.062l-3.219-3.234c-0.281-0.281-0.672-0.438-1.062-0.438s-0.781 0.156-1.062 0.422l-2.297 2.281c-0.281 0.281-0.438 0.656-0.438 1.047 0 0.406 0.156 0.781 0.438 1.062l3.25 3.25c0.281 0.281 0.672 0.422 1.062 0.422 0.453 0 0.812-0.156 1.125-0.484-0.516-0.516-1.125-0.953-1.125-1.75 0-0.828 0.672-1.5 1.5-1.5 0.797 0 1.234 0.609 1.75 1.125 0.328-0.313 0.516-0.672 0.516-1.141zM25.752 20c0 1.188-0.484 2.344-1.328 3.172l-2.297 2.281c-0.844 0.844-1.984 1.297-3.172 1.297-1.203 0-2.344-0.469-3.187-1.328l-3.219-3.234c-0.844-0.844-1.297-1.984-1.297-3.172 0-1.234 0.5-2.406 1.375-3.266l-1.375-1.375c-0.859 0.875-2.016 1.375-3.25 1.375-1.188 0-2.344-0.469-3.187-1.313l-3.25-3.25c-0.859-0.859-1.313-1.984-1.313-3.187 0-1.188 0.484-2.344 1.328-3.172l2.297-2.281c0.844-0.844 1.984-1.297 3.172-1.297 1.203 0 2.344 0.469 3.187 1.328l3.219 3.234c0.844 0.844 1.297 1.984 1.297 3.172 0 1.234-0.5 2.406-1.375 3.266l1.375 1.375c0.859-0.875 2.016-1.375 3.25-1.375 1.188 0 2.344 0.469 3.187 1.313l3.25 3.25c0.859 0.859 1.313 1.984 1.313 3.187z"></path>
</symbol>
<symbol id="icon-edit" viewBox="0 0 28 28">
<path d="M13.953 19.5l1.813-1.813-2.375-2.375-1.813 1.813v0.875h1.5v1.5h0.875zM20.828 8.25c-0.141-0.141-0.375-0.125-0.516 0.016l-5.469 5.469c-0.141 0.141-0.156 0.375-0.016 0.516s0.375 0.125 0.516-0.016l5.469-5.469c0.141-0.141 0.156-0.375 0.016-0.516zM22.078 17.531v2.969c0 2.484-2.016 4.5-4.5 4.5h-13c-2.484 0-4.5-2.016-4.5-4.5v-13c0-2.484 2.016-4.5 4.5-4.5h13c0.625 0 1.25 0.125 1.828 0.391 0.141 0.063 0.25 0.203 0.281 0.359 0.031 0.172-0.016 0.328-0.141 0.453l-0.766 0.766c-0.141 0.141-0.328 0.187-0.5 0.125-0.234-0.063-0.469-0.094-0.703-0.094h-13c-1.375 0-2.5 1.125-2.5 2.5v13c0 1.375 1.125 2.5 2.5 2.5h13c1.375 0 2.5-1.125 2.5-2.5v-1.969c0-0.125 0.047-0.25 0.141-0.344l1-1c0.156-0.156 0.359-0.187 0.547-0.109s0.313 0.25 0.313 0.453zM20.578 6l4.5 4.5-10.5 10.5h-4.5v-4.5zM27.516 8.063l-1.437 1.437-4.5-4.5 1.437-1.437c0.578-0.578 1.547-0.578 2.125 0l2.375 2.375c0.578 0.578 0.578 1.547 0 2.125z"></path>
</symbol>
<symbol id="icon-bank" viewBox="0 0 30 28">
<path d="M14.998 0l15 6v2h-2c0 0.547-0.484 1-1.078 1h-23.844c-0.594 0-1.078-0.453-1.078-1h-2v-2zM3.998 10h4v12h2v-12h4v12h2v-12h4v12h2v-12h4v12h0.922c0.594 0 1.078 0.453 1.078 1v1h-26v-1c0-0.547 0.484-1 1.078-1h0.922v-12zM28.92 25c0.594 0 1.078 0.453 1.078 1v2h-30v-2c0-0.547 0.484-1 1.078-1h27.844z"></path>
</symbol>
<symbol id="icon-lock" viewBox="0 0 18 28">
<path d="M4.996 13h8v-3c0-2.203-1.797-4-4-4s-4 1.797-4 4v3zM17.996 14.5v9c0 0.828-0.672 1.5-1.5 1.5h-15c-0.828 0-1.5-0.672-1.5-1.5v-9c0-0.828 0.672-1.5 1.5-1.5h0.5v-3c0-3.844 3.156-7 7-7s7 3.156 7 7v3h0.5c0.828 0 1.5 0.672 1.5 1.5z"></path>
</symbol>
<symbol id="icon-check-square-o" viewBox="0 0 26 28">
<path d="M22.064 15.531v4.969c0 2.484-2.016 4.5-4.5 4.5h-13c-2.484 0-4.5-2.016-4.5-4.5v-13c0-2.484 2.016-4.5 4.5-4.5h13c0.625 0 1.25 0.125 1.828 0.391 0.141 0.063 0.25 0.203 0.281 0.359 0.031 0.172-0.016 0.328-0.141 0.453l-0.766 0.766c-0.094 0.094-0.234 0.156-0.359 0.156-0.047 0-0.094-0.016-0.141-0.031-0.234-0.063-0.469-0.094-0.703-0.094h-13c-1.375 0-2.5 1.125-2.5 2.5v13c0 1.375 1.125 2.5 2.5 2.5h13c1.375 0 2.5-1.125 2.5-2.5v-3.969c0-0.125 0.047-0.25 0.141-0.344l1-1c0.109-0.109 0.234-0.156 0.359-0.156 0.063 0 0.125 0.016 0.187 0.047 0.187 0.078 0.313 0.25 0.313 0.453zM25.674 7.891l-12.719 12.719c-0.5 0.5-1.281 0.5-1.781 0l-6.719-6.719c-0.5-0.5-0.5-1.281 0-1.781l1.719-1.719c0.5-0.5 1.281-0.5 1.781 0l4.109 4.109 10.109-10.109c0.5-0.5 1.281-0.5 1.781 0l1.719 1.719c0.5 0.5 0.5 1.281 0 1.781z"></path>
</symbol>
<symbol id="icon-check-circle" viewBox="0 0 24 28">
<path d="M20.066 11.469c0-0.266-0.094-0.531-0.281-0.719l-1.422-1.406c-0.187-0.187-0.438-0.297-0.703-0.297s-0.516 0.109-0.703 0.297l-6.375 6.359-3.531-3.531c-0.187-0.187-0.438-0.297-0.703-0.297s-0.516 0.109-0.703 0.297l-1.422 1.406c-0.187 0.187-0.281 0.453-0.281 0.719s0.094 0.516 0.281 0.703l5.656 5.656c0.187 0.187 0.453 0.297 0.703 0.297 0.266 0 0.531-0.109 0.719-0.297l8.484-8.484c0.187-0.187 0.281-0.438 0.281-0.703zM24.004 14c0 6.625-5.375 12-12 12s-12-5.375-12-12 5.375-12 12-12 12 5.375 12 12z"></path>
</symbol>
<symbol id="icon-tasks" viewBox="0 0 28 28">
<path d="M16 23h10v-2h-10v2zM10 15h16v-2h-16v2zM20 7h6v-2h-6v2zM28 20v4c0 0.547-0.453 1-1 1h-26c-0.547 0-1-0.453-1-1v-4c0-0.547 0.453-1 1-1h26c0.547 0 1 0.453 1 1zM28 12v4c0 0.547-0.453 1-1 1h-26c-0.547 0-1-0.453-1-1v-4c0-0.547 0.453-1 1-1h26c0.547 0 1 0.453 1 1zM28 4v4c0 0.547-0.453 1-1 1h-26c-0.547 0-1-0.453-1-1v-4c0-0.547 0.453-1 1-1h26c0.547 0 1 0.453 1 1z"></path>
</symbol>
<symbol id="icon-play" viewBox="0 0 22 28">
<path d="M21.691 14.484l-20.75 11.531c-0.484 0.266-0.875 0.031-0.875-0.516v-23c0-0.547 0.391-0.781 0.875-0.516l20.75 11.531c0.484 0.266 0.484 0.703 0 0.969z"></path>
</symbol>
<symbol id="icon-home" viewBox="0 0 28 28">
<path d="M28 16.625l-5.25-5.25v-7.875h-3.5v4.375l-5.25-5.25-14 14v0.875h3.5v8.75h8.75v-5.25h3.5v5.25h8.75v-8.75h3.5z"></path>
</symbol>
<symbol id="icon-office" viewBox="0 0 28 28">
<path d="M0 28h14v-28h-14v28zM8.75 3.5h3.5v3.5h-3.5v-3.5zM8.75 10.5h3.5v3.5h-3.5v-3.5zM8.75 17.5h3.5v3.5h-3.5v-3.5zM1.75 3.5h3.5v3.5h-3.5v-3.5zM1.75 10.5h3.5v3.5h-3.5v-3.5zM1.75 17.5h3.5v3.5h-3.5v-3.5zM15.75 8.75h12.25v1.75h-12.25zM15.75 28h3.5v-7h5.25v7h3.5v-15.75h-12.25z"></path>
</symbol>
<symbol id="icon-newspaper" viewBox="0 0 28 28">
<path d="M24.5 7v-3.5h-24.5v19.25c0 0.966 0.784 1.75 1.75 1.75h23.625c1.45 0 2.625-1.175 2.625-2.625v-14.875h-3.5zM22.75 22.75h-21v-17.5h21v17.5zM3.5 8.75h17.5v1.75h-17.5zM14 12.25h7v1.75h-7zM14 15.75h7v1.75h-7zM14 19.25h5.25v1.75h-5.25zM3.5 12.25h8.75v8.75h-8.75z"></path>
</symbol>
<symbol id="icon-quill" viewBox="0 0 28 28">
<path d="M0 28c3.5-10.5 12.66-28 28-28-7.191 5.77-10.5 19.25-15.75 19.25s-5.25 0-5.25 0l-5.25 8.75h-1.75z"></path>
</symbol>
<symbol id="icon-eyedropper" viewBox="0 0 28 28">
<path d="M26.975 1.025c-1.367-1.367-3.583-1.367-4.95 0l-4.706 4.706-3.319-3.319-3.712 3.712 2.91 2.91-12.909 12.909c-0.22 0.22-0.314 0.518-0.282 0.805h-0.007v4.375c0 0.483 0.392 0.875 0.875 0.875h4.375c0 0 0.073 0 0.109 0 0.252 0 0.504-0.096 0.696-0.288l12.909-12.909 2.91 2.91 3.712-3.712-3.319-3.319 4.706-4.706c1.367-1.367 1.367-3.583 0-4.95zM4.733 26.25h-2.983v-2.983l12.84-12.84 2.983 2.983-12.84 12.84z"></path>
</symbol>
<symbol id="icon-music" viewBox="0 0 28 28">
<path d="M26.25 0h1.75v20.125c0 2.416-2.742 4.375-6.125 4.375s-6.125-1.959-6.125-4.375c0-2.416 2.742-4.375 6.125-4.375 1.714 0 3.263 0.503 4.375 1.314v-10.064l-14 3.111v13.514c0 2.416-2.742 4.375-6.125 4.375s-6.125-1.959-6.125-4.375c0-2.416 2.742-4.375 6.125-4.375 1.714 0 3.263 0.503 4.375 1.314v-17.064l15.75-3.5z"></path>
</symbol>
<symbol id="icon-dice" viewBox="0 0 28 28">
<path d="M23.625 5.25h-14c-2.406 0-4.375 1.969-4.375 4.375v14c0 2.406 1.969 4.375 4.375 4.375h14c2.406 0 4.375-1.969 4.375-4.375v-14c0-2.406-1.969-4.375-4.375-4.375zM11.375 24.5c-1.45 0-2.625-1.175-2.625-2.625s1.175-2.625 2.625-2.625 2.625 1.175 2.625 2.625-1.175 2.625-2.625 2.625zM11.375 14c-1.45 0-2.625-1.175-2.625-2.625s1.175-2.625 2.625-2.625 2.625 1.175 2.625 2.625-1.175 2.625-2.625 2.625zM16.625 19.25c-1.45 0-2.625-1.175-2.625-2.625s1.175-2.625 2.625-2.625 2.625 1.175 2.625 2.625-1.175 2.625-2.625 2.625zM21.875 24.5c-1.45 0-2.625-1.175-2.625-2.625s1.175-2.625 2.625-2.625 2.625 1.175 2.625 2.625-1.175 2.625-2.625 2.625zM21.875 14c-1.45 0-2.625-1.175-2.625-2.625s1.175-2.625 2.625-2.625 2.625 1.175 2.625 2.625-1.175 2.625-2.625 2.625zM22.661 3.5c-0.408-1.991-2.18-3.5-4.286-3.5h-14c-2.406 0-4.375 1.969-4.375 4.375v14c0 2.107 1.509 3.878 3.5 4.286v-17.411c0-0.962 0.788-1.75 1.75-1.75h17.411z"></path>
</symbol>
<symbol id="icon-schoolred" viewBox="0 0 35 28">
<path fill="#ff6347" style="fill: var(--color1, #ff6347)" d="M0 12.25v14.875c0 0.483 0.392 0.875 0.875 0.875v0h4.375v-17.5h-3.5c-0.966 0-1.75 0.784-1.75 1.75v0zM19.688 9.625h-1.313v-2.188c0-0.242-0.196-0.438-0.438-0.438v0h-0.875c-0.242 0-0.438 0.196-0.438 0.438v0 3.5c0 0.242 0.196 0.438 0.438 0.438v0h2.625c0.242 0 0.438-0.196 0.438-0.438v0-0.875c0-0.242-0.196-0.438-0.438-0.438v0zM27.221 6.125l-8.75-5.831c-0.273-0.184-0.609-0.294-0.971-0.294s-0.698 0.11-0.977 0.298l0.006-0.004-8.75 5.831c-0.473 0.318-0.779 0.851-0.779 1.456 0 0.001 0 0.001 0 0.002v-0 20.417h7v-7.875c0-0.483 0.392-0.875 0.875-0.875v0h5.25c0.483 0 0.875 0.392 0.875 0.875v0 7.875h7v-20.416c0-0.001 0-0.002 0-0.002 0-0.605-0.307-1.138-0.773-1.452l-0.006-0.004zM17.5 14c-2.416 0-4.375-1.959-4.375-4.375s1.959-4.375 4.375-4.375c2.416 0 4.375 1.959 4.375 4.375v0c0 2.416-1.959 4.375-4.375 4.375v0zM33.25 10.5h-3.5v17.5h4.375c0.483 0 0.875-0.392 0.875-0.875v0-14.875c0-0.966-0.784-1.75-1.75-1.75v0z"></path>
</symbol>
<symbol id="icon-cmebis" viewBox="0 0 92 28">
<path fill="#ec634c" style="fill: var(--color2, #ec634c)" d="M0 24.908v-11.95c0.013-0.304 0.122-0.58 0.298-0.802l-0.002 0.003c0.164-0.23 0.429-0.379 0.729-0.382h0c0.521 0 0.868 0.33 1.007 0.973 0.437-0.585 1.118-0.966 1.89-0.99l0.004-0c0.885 0.023 1.646 0.534 2.026 1.272l0.006 0.013c0.451-0.736 1.23-1.232 2.129-1.285l0.007-0c0.020-0.001 0.044-0.001 0.069-0.001 0.68 0 1.284 0.326 1.665 0.83l0.004 0.005c0.371 0.534 0.593 1.195 0.593 1.909 0 0.043-0.001 0.087-0.002 0.13l0-0.006 0.295 10.283c0 0.009 0 0.019 0 0.029 0 0.325-0.111 0.623-0.298 0.86l0.002-0.003c-0.162 0.233-0.428 0.383-0.73 0.383s-0.568-0.151-0.728-0.38l-0.002-0.003c-0.175-0.222-0.28-0.505-0.28-0.813 0-0.026 0.001-0.051 0.002-0.077l-0 0.004-0.208-9.883c0-0.538-0.156-0.799-0.417-0.799-0.166 0.016-0.312 0.093-0.416 0.208l-0 0.001-1.216 1.199v9.206c0.001 0.014 0.001 0.030 0.001 0.047 0 0.316-0.119 0.605-0.315 0.823l0.001-0.001c-0.162 0.221-0.42 0.363-0.712 0.365h-0c-0.296-0.004-0.559-0.145-0.728-0.363l-0.002-0.002c-0.185-0.223-0.297-0.512-0.297-0.828 0-0.021 0-0.041 0.001-0.061l-0 0.003v-9.953c0-0.434-0.156-0.643-0.452-0.643-0.019-0.003-0.040-0.004-0.062-0.004-0.159 0-0.3 0.076-0.389 0.194l-0.001 0.001-1.476 1.529v8.963c0 0.009 0 0.019 0 0.029 0 0.325-0.111 0.623-0.298 0.86l0.002-0.003c-0.155 0.232-0.415 0.382-0.71 0.382-0.001 0-0.001 0-0.002 0h0c-0.3-0.003-0.565-0.152-0.728-0.379l-0.002-0.003c-0.165-0.218-0.264-0.493-0.264-0.792 0-0.033 0.001-0.066 0.004-0.098l-0 0.004z"></path>
<path fill="#ec634c" style="fill: var(--color2, #ec634c)" d="M23.050 16.432v3.057c0 0.334-0.111 0.642-0.298 0.89l0.003-0.004c-0.171 0.219-0.433 0.361-0.729 0.365h-7.244v0.747c0 0.001 0 0.002 0 0.002 0 0.426 0.173 0.812 0.452 1.092l-0-0 0.591 0.608c0.235 0.262 0.563 0.436 0.933 0.469l0.005 0h5.211c0.296 0.004 0.559 0.145 0.728 0.363l0.002 0.002c0.184 0.234 0.296 0.532 0.296 0.857 0 0.010-0 0.020-0 0.031l0-0.002c0 0.010 0 0.021 0 0.032 0 0.326-0.118 0.625-0.315 0.855l0.002-0.002c-0.157 0.23-0.417 0.38-0.712 0.382h-5.35c-0.413-0.006-0.801-0.108-1.143-0.285l0.014 0.007c-0.334-0.149-0.621-0.342-0.87-0.575l0.002 0.002-0.921-1.007c-0.304-0.331-0.546-0.724-0.704-1.157l-0.008-0.024c-0.172-0.404-0.279-0.874-0.295-1.366l-0-0.006v-5.767c0.033-0.49 0.144-0.945 0.323-1.365l-0.010 0.027c0.202-0.514 0.503-0.949 0.884-1.301l0.002-0.002 0.851-0.816c0.463-0.508 1.121-0.831 1.855-0.851l0.004-0h2.883c0.841 0.053 1.574 0.475 2.044 1.104l0.005 0.007 0.782 0.903c0.468 0.65 0.748 1.462 0.748 2.339 0 0.137-0.007 0.272-0.020 0.405l0.001-0.017zM14.799 16.241v1.945h6.236v-1.737c0.002-0.028 0.003-0.062 0.003-0.095 0-0.377-0.139-0.721-0.369-0.983l0.001 0.002-0.591-0.643c-0.203-0.251-0.495-0.423-0.827-0.468l-0.007-0.001h-2.571c-0.348 0.010-0.657 0.169-0.867 0.415l-0.001 0.002-0.591 0.608c-0.256 0.227-0.417 0.557-0.417 0.925 0 0.011 0 0.022 0 0.032l-0-0.002z"></path>
<path fill="#ec634c" style="fill: var(--color2, #ec634c)" d="M27.305 7.504v5.923l0.903-0.886c0.425-0.499 1.039-0.826 1.73-0.868l0.007-0h1.876c0.739 0.004 1.398 0.339 1.838 0.865l0.003 0.004 0.973 1.025c0.299 0.351 0.531 0.768 0.671 1.226l0.006 0.025c0.162 0.477 0.257 1.026 0.261 1.596v5.091c-0.008 0.524-0.096 1.025-0.253 1.494l0.010-0.035c-0.13 0.432-0.326 0.808-0.579 1.137l0.006-0.008-0.886 1.025c-0.266 0.304-0.59 0.55-0.955 0.722l-0.018 0.008c-0.309 0.186-0.676 0.305-1.070 0.33l-0.007 0h-1.737c-1.167-0.17-2.158-0.812-2.788-1.723l-0.009-0.014v0.486c0 0.009 0 0.019 0 0.029 0 0.33-0.111 0.635-0.298 0.878l0.003-0.003c-0.171 0.219-0.433 0.361-0.729 0.365h-0.001c-0.004 0-0.008 0-0.013 0-0.293 0-0.554-0.143-0.715-0.362l-0.002-0.002c-0.184-0.24-0.296-0.544-0.296-0.875 0-0.010 0-0.020 0-0.030l-0 0.002v-17.37c-0-0.012-0.001-0.026-0.001-0.040 0-0.327 0.111-0.627 0.298-0.866l-0.002 0.003c0.166-0.226 0.431-0.371 0.73-0.371s0.563 0.145 0.728 0.368l0.002 0.002c0.188 0.231 0.305 0.527 0.313 0.849l0 0.002zM31.7 14.226h-1.424c-0.019-0.001-0.042-0.002-0.064-0.002-0.277 0-0.529 0.106-0.718 0.281l0.001-0.001-1.841 1.928c-0.22 0.288-0.352 0.653-0.352 1.049 0 0.047 0.002 0.093 0.005 0.138l-0-0.006v2.849c-0 0.009-0 0.021-0 0.032 0 0.391 0.152 0.747 0.401 1.011l-0.001-0.001 1.65 1.737c0.174 0.23 0.441 0.381 0.744 0.399l0.003 0h1.737c0.005 0 0.012 0 0.018 0 0.237 0 0.449-0.108 0.589-0.277l0.001-0.001 0.816-0.886c0.206-0.199 0.333-0.478 0.333-0.786 0-0.029-0.001-0.058-0.003-0.086l0 0.004v-5.211c0.002-0.029 0.003-0.062 0.003-0.096 0-0.337-0.126-0.645-0.335-0.878l0.001 0.001-0.747-0.764c-0.184-0.259-0.48-0.427-0.815-0.434l-0.001-0z"></path>
<path fill="#ec634c" style="fill: var(--color2, #ec634c)" d="M44.953 26.141h-6.253c-0.296-0.004-0.559-0.145-0.728-0.363l-0.002-0.002c-0.177-0.24-0.282-0.542-0.282-0.868s0.106-0.628 0.285-0.873l-0.003 0.004c0.164-0.23 0.429-0.379 0.729-0.382h2.102v-9.432h-2.067c-0.009 0-0.020 0.001-0.031 0.001-0.281 0-0.532-0.128-0.697-0.329l-0.001-0.002c-0.185-0.223-0.297-0.512-0.297-0.828 0-0.021 0-0.041 0.001-0.061l-0 0.003c-0.001-0.017-0.001-0.037-0.001-0.057 0-0.321 0.112-0.616 0.299-0.849l-0.002 0.003c0.158-0.232 0.421-0.382 0.72-0.382 0.003 0 0.007 0 0.011 0h3.109c0.003-0 0.006-0 0.010-0 0.298 0 0.561 0.15 0.718 0.379l0.002 0.003c0.185 0.23 0.296 0.525 0.296 0.846 0 0.020-0 0.040-0.001 0.060l0-0.003v10.613h2.067c0.296 0.004 0.559 0.145 0.728 0.363l0.002 0.002c0.195 0.231 0.313 0.532 0.313 0.86 0 0.015-0 0.030-0.001 0.045l0-0.002c0 0.010 0 0.021 0 0.032 0 0.326-0.118 0.625-0.315 0.855l0.002-0.002c-0.162 0.221-0.42 0.363-0.712 0.365h-0zM40.784 5.211h1.060c0.004-0 0.008-0 0.013-0 0.293 0 0.554 0.143 0.715 0.362l0.002 0.002c0.185 0.23 0.296 0.525 0.296 0.846 0 0.020-0 0.040-0.001 0.060l0-0.003v0.99c0.001 0.015 0.001 0.033 0.001 0.052 0 0.323-0.112 0.62-0.298 0.854l0.002-0.003c-0.158 0.232-0.421 0.382-0.72 0.382-0.003 0-0.007-0-0.011-0h-1.094c-0.023 0.002-0.050 0.003-0.077 0.003-0.3 0-0.564-0.152-0.72-0.383l-0.002-0.003c-0.184-0.229-0.296-0.524-0.296-0.845 0-0.008 0-0.017 0-0.025l-0 0.001v-1.112c-0.001-0.017-0.001-0.037-0.001-0.057 0-0.321 0.112-0.616 0.299-0.849l-0.002 0.003c0.163-0.181 0.398-0.295 0.66-0.295 0.061 0 0.121 0.006 0.179 0.018l-0.006-0.001z"></path>
<path fill="#ec634c" style="fill: var(--color2, #ec634c)" d="M50.511 11.69h4.707c0.761 0.004 1.448 0.316 1.945 0.816l0 0c0.467 0.376 0.779 0.929 0.833 1.555l0.001 0.008c0.001 0.017 0.001 0.037 0.001 0.057 0 0.319-0.119 0.609-0.315 0.83l0.001-0.001c-0.161 0.202-0.403 0.334-0.675 0.347l-0.002 0c-0.38-0.030-0.706-0.235-0.9-0.534l-0.003-0.005c-0.17-0.3-0.475-0.507-0.83-0.538l-0.004-0h-4.638c-0.028-0.005-0.061-0.007-0.094-0.007-0.336 0-0.608 0.272-0.608 0.608 0 0.033 0.003 0.066 0.008 0.098l-0-0.004c0.004 0.307 0.177 0.574 0.43 0.71l0.004 0.002 5.437 2.97c0.591 0.346 1.061 0.843 1.363 1.439l0.009 0.020c0.329 0.62 0.522 1.356 0.522 2.137 0 0.024-0 0.049-0.001 0.073l0-0.004c0.001 0.033 0.001 0.072 0.001 0.111 0 1-0.348 1.918-0.928 2.641l0.006-0.008c-0.485 0.662-1.248 1.096-2.114 1.129l-0.005 0h-4.117c-0.738-0.020-1.405-0.307-1.913-0.767l0.003 0.002c-0.503-0.353-0.848-0.903-0.92-1.536l-0.001-0.010c-0-0.004-0-0.008-0-0.012 0-0.324 0.111-0.623 0.298-0.859l-0.002 0.003c0.146-0.202 0.366-0.343 0.62-0.381l0.005-0.001c0.353 0.049 0.652 0.25 0.831 0.534l0.003 0.005c0.297 0.332 0.727 0.54 1.206 0.54 0.028 0 0.056-0.001 0.083-0.002l-0.004 0h3.821c0.318-0.002 0.595-0.174 0.745-0.43l0.002-0.004c0.195-0.26 0.313-0.588 0.313-0.944 0-0.010-0-0.020-0-0.030l0 0.002c0.002-0.030 0.004-0.064 0.004-0.099 0-0.489-0.273-0.914-0.674-1.131l-0.007-0.003-5.506-3.057c-0.532-0.278-0.952-0.709-1.209-1.234l-0.007-0.016c-0.274-0.485-0.435-1.065-0.435-1.683 0-0.019 0-0.038 0-0.057l-0 0.003c0.016-0.873 0.328-1.671 0.839-2.3l-0.005 0.007c0.415-0.601 1.1-0.989 1.876-0.99h0z"></path>
<path fill="#0ca8d5" style="fill: var(--color3, #0ca8d5)" d="M67.169 13.774l-7.33 12.402 14.33-3.943 7.347-12.385-14.347 3.926z"></path>
<path fill="#ec634c" style="fill: var(--color2, #ec634c)" d="M77.087 27.965c-3.176-0.223-6.017-1.502-8.21-3.484l0.012 0.011 2.328-0.73c1.921 1.42 4.333 2.279 6.944 2.293l0.003 0c6.649-0.086 12.006-5.497 12.006-12.158 0-0.098-0.001-0.196-0.003-0.293l0 0.014c-0.229-6.449-5.512-11.59-11.995-11.59-3.365 0-6.406 1.385-8.585 3.615l-0.002 0.002c-0.175 0.17-0.414 0.275-0.677 0.275s-0.502-0.105-0.678-0.275l0 0c-0.224-0.183-0.367-0.459-0.367-0.769 0-0.268 0.107-0.512 0.28-0.69l-0 0c2.547-2.602 6.095-4.214 10.019-4.214 7.742 0 14.017 6.276 14.017 14.017s-6.276 14.017-14.017 14.017c-0.378 0-0.752-0.015-1.123-0.044l0.049 0.003z"></path>
</symbol>
<symbol id="icon-wallet" viewBox="0 0 32 32">
<path d="M16 20c0-1.105 0.895-2 2-2s2 0.895 2 2c0 1.105-0.895 2-2 2s-2-0.895-2-2zM29.001 13c-0.001 0-0.001 0 0 0l-0.001-6v-3c0-1.657-1.344-3-3-3h-20.5c-3.033 0-5.5 2.468-5.5 5.5v20c0 3.032 2.467 5.5 5.5 5.5h18c3.032 0 5.5-2.468 5.5-5.5v-1.5c0 0 0 0 0.001 0 3.998-3.001 3.998-8.999 0-12zM5.5 3h20.5c0.551 0 1 0.448 1 1v6.184c-0.314-0.112-0.648-0.184-1-0.184h-0.001v-5c0-0.553-0.448-1-1-1h-21c-0.552 0-1 0.447-1 1v3.943c-0.617-0.631-0.999-1.491-0.999-2.443 0-1.933 1.566-3.5 3.5-3.5zM24.999 6h-21v-1h21v1zM24.999 7v1h-21v-1h21zM24.999 9v1h-19.499c-0.54 0-1.044-0.132-1.5-0.35v-0.65h20.999zM27 26.5c0 1.933-1.567 3.5-3.5 3.5h-18c-1.934 0-3.5-1.567-3.5-3.5v-15.761c0.951 0.787 2.171 1.261 3.5 1.261h20.5c0.551 0 1 0.448 1 1v2h-9c-2.762 0-5 2.238-5 5s2.239 5 5 5h9v1.5zM28.277 23h-10.277c-1.654 0-3-1.346-3-3s1.346-3 3-3h9c0.617-0.008 1.229-0.307 1.602-0.804 0.104-0.14 0.185-0.297 0.25-0.461 0.009-0.022 0.025-0.039 0.033-0.062 0.719 0.943 1.115 2.099 1.115 3.327 0 1.538-0.621 2.965-1.723 4z"></path>
</symbol>
<symbol id="icon-pen" viewBox="0 0 32 32">
<path d="M29.395 2.58c-1.645-1.643-3.811-2.58-5.946-2.58-1.801 0-3.459 0.668-4.67 1.877l-4.867 4.904c-0.015 0.014-0.032 0.023-0.047 0.038-0.008 0.008-0.013 0.019-0.021 0.026l0.002 0.002-10.329 10.409c-0.476 0.473-0.821 1.062-1.013 1.705l-2.349 8.508c-0.002 0.023-0.155 0.691-0.155 1.031 0 1.932 1.569 3.5 3.504 3.5 0.385 0 1.13-0.184 1.157-0.188l8.478-2.229c0.644-0.191 1.229-0.539 1.705-1.016l15.263-15.383c2.776-2.778 2.463-7.434-0.712-10.604zM16.014 23.795c-0.082-0.902-0.337-1.787-0.719-2.627l9.455-9.454c0.578 1.826 0.281 3.736-0.986 5.004-0.008 0.008-0.018 0.013-0.025 0.021l0.014 0.013-7.728 7.79c0-0.249 0.012-0.493-0.011-0.747zM14.793 20.256c-0.373-0.613-0.797-1.205-1.322-1.729-0.611-0.611-1.312-1.090-2.044-1.492l9.532-9.532c0.748 0.332 1.465 0.805 2.098 1.438 0.541 0.539 0.959 1.143 1.281 1.771l-9.545 9.544zM10.486 16.562c-0.926-0.373-1.896-0.586-2.868-0.599l7.703-7.762c1.179-1.15 2.896-1.481 4.587-1.062l-9.422 9.423zM4.167 29.873c-0.109 0.025-0.448 0.111-0.678 0.127-0.822-0.010-1.489-0.678-1.489-1.5 0.012-0.168 0.079-0.457 0.102-0.562l1.053-3.814c1.143-0.031 2.373 0.414 3.34 1.383 0.982 0.98 1.444 2.234 1.394 3.391l-3.722 0.975zM8.874 28.637c-0.024-1.342-0.57-2.738-1.672-3.838-1.042-1.043-2.406-1.645-3.766-1.699l0.996-3.607c0.072-0.24 0.215-0.477 0.391-0.684 2.006-1.436 5.091-1.012 7.234 1.133 2.267 2.266 2.617 5.586 0.871 7.568-0.116 0.061-0.233 0.119-0.359 0.156l-3.695 0.971zM28.691 11.772l-1.684 1.697c0-0.226 0.027-0.443 0.006-0.674-0.176-1.935-1.078-3.806-2.543-5.269-1.629-1.63-3.789-2.565-5.928-2.571l1.656-1.67c0.829-0.827 1.986-1.285 3.251-1.285 1.609 0 3.262 0.728 4.533 1.995 1.193 1.191 1.904 2.671 2.006 4.168 0.094 1.397-0.367 2.678-1.297 3.609z"></path>
</symbol>
</defs>
</svg>
